<svg xmlns="http://www.w3.org/2000/svg" version="1.1" xmlns:xlink="http://www.w3.org/1999/xlink" 
xmlns:svgjs="http://svgjs.dev/svgjs"  width="308.7612359841165"
   height="304.915625" 
viewBox="0 0 2000 2138"><g transform="matrix(1,0,0,1,1.9067782028620286,0.8671854547076236)"><svg viewBox="0 0 231 247" data-background-color="#ffffff" preserveAspectRatio="xMidYMid meet" height="2138" width="2000" xmlns="http://www.w3.org/2000/svg" xmlns:xlink="http://www.w3.org/1999/xlink"><g id="tight-bounds" transform="matrix(1,0,0,1,-0.2201031396169526,-0.09997365579206985)"><svg viewBox="0 0 231.44001904761905 247.2" height="247.2" width="231.44001904761905"><g><svg viewBox="0 0 231.44001904761905 247.2" height="247.2" width="231.44001904761905"><g><svg viewBox="0 0 231.44001904761905 247.2" height="247.2" width="231.44001904761905"><g id="textblocktransform"><svg viewBox="0 0 231.44001904761905 247.2" height="247.2" width="231.44001904761905" id="textblock"><g><svg viewBox="0 0 231.44001904761905 247.2" height="247.2" width="231.44001904761905"><path d="M230.898 53.02C229.81 27.36 226.709 20.227 226.709 20.227 217.189-6.202 205.307-0.506 194.633 3.292 175.788 3.446 157.02 9.091 138.218 12.119 98.755 12.581 58.954 4.986 19.686 23.717 15.998 29.464-3.827 24.846 0.656 56.304 1.831 69.39 6.118 83.913 5.988 95.922 6.575 98.026 7.391 93.202 7.739 96.23 8.958 104.39 10.949 100.541 12.581 105.365 10.307 118.246 11.939 128.971 13.495 140.21 10.753 143.135 7.239 141.749 5.661 151.449 5.498 158.479 4.617 157.145 3.648 156.837 2.941 156.632 1.516 157.402 1.755 159.608 2.571 167.152-0.932 171.514 1.265 178.904-0.247 186.91 2.31 193.838 1.962 202.511 1.918 204.255 2.158 205.744 2.538 206.154 4.225 208.361 1.766 212.672 2.027 217.342 19.327 249.262 38.096 227.195 55.82 241.872 60.423 231.608 56.963 245.516 58.801 243.36 60.238 240.846 61.282 251.263 62.903 245.362 63.154 243.668 62.773 239.665 63.665 240.435 64.133 240.846 64.546 240.743 64.612 238.382 64.71 234.841 63.85 237.048 63.621 235.201 66.091 225.861 65.482 248.081 67.8 247.158 67.691 244.438 67.016 240.538 68.398 241.051 69.769 237.151 69.812 233.918 71.031 242.693 71.075 244.592 71.292 245.926 71.64 246.85 75.449 237.305 79.235 250.237 83.228 245.926 85.676 241.205 88.026 248.492 90.507 246.696 91.378 245.259 92.259 242.693 93.097 247.004 103.357 247.928 114.292 244.079 124.019 247.158 150.013 241.41 177.79 249.518 205.198 241.923 211.661 238.998 218.375 234.841 224.675 231.506 224.675 231.506 229.777 222.371 229.777 181.316S230.866 145.393 231.029 112.703C231.192 80.013 231.954 78.679 230.866 53.02Z" opacity="1" fill="#ee3e38" data-fill-palette-color="tertiary"></path><g transform="matrix(1,0,0,1,55.76832,26.230666666666668)"><svg width="119.90337904761904" viewBox="2.25 -35 21.549999237060547 35" height="194.73866666666666" data-palette-color="#ffffff"><path d="M23.8 0L2.25 0 2.25-2.2Q2.25-7.35 4.33-11.03 6.4-14.7 10.2-18.3L10.2-18.3Q12.6-20.55 13.93-21.98 15.25-23.4 16.73-25.78 18.2-28.15 18.75-30.6L18.75-30.6 2.25-30.6 2.25-35 23.7-35Q23.7-29.5 22.75-26.9L22.75-26.9Q20.6-21 13.95-15.25L13.95-15.25Q10.8-12.6 9.18-10.13 7.55-7.65 7.15-4.4L7.15-4.4 23.8-4.4 23.8 0Z" opacity="1" transform="matrix(1,0,0,1,0,0)" fill="#ffffff" class="wordmark-text-0" data-fill-palette-color="quaternary" id="text-0"></path></svg></g></svg></g></svg></g></svg></g><g></g></svg></g><defs></defs></svg><rect width="231.44001904761905" height="247.2" fill="none" stroke="none" visibility="hidden"></rect></g></svg></g></svg>